ffmpeg version 6.0-essentials_build-www.gyan.dev Copyright (c) 2000-2023 the FFmpeg developers
  built with gcc 12.2.0 (Rev10, Built by MSYS2 project)
  configuration: --enable-gpl --enable-version3 --enable-static --disable-w32threads --disable-autodetect --enable-fontconfig --enable-iconv --enable-gnutls --enable-libxml2 --enable-gmp --enable-lzma --enable-zlib --enable-libsrt --enable-libssh --enable-libzmq --enable-avisynth --enable-sdl2 --enable-libwebp --enable-libx264 --enable-libx265 --enable-libxvid --enable-libaom --enable-libopenjpeg --enable-libvpx --enable-libass --enable-libfreetype --enable-libfribidi --enable-libvidstab --enable-libvmaf --enable-libzimg --enable-amf --enable-cuda-llvm --enable-cuvid --enable-ffnvcodec --enable-nvdec --enable-nvenc --enable-d3d11va --enable-dxva2 --enable-libmfx --enable-libgme --enable-libopenmpt --enable-libopencore-amrwb --enable-libmp3lame --enable-libtheora --enable-libvo-amrwbenc --enable-libgsm --enable-libopencore-amrnb --enable-libopus --enable-libspeex --enable-libvorbis --enable-librubberband
  libavutil      58.  2.100 / 58.  2.100
  libavcodec     60.  3.100 / 60.  3.100
  libavformat    60.  3.100 / 60.  3.100
  libavdevice    60.  1.100 / 60.  1.100
  libavfilter     9.  3.100 /  9.  3.100
  libswscale      7.  1.100 /  7.  1.100
  libswresample   4. 10.100 /  4. 10.100
  libpostproc    57.  1.100 / 57.  1.100
ffmpeg stats and -progress period set to 10.
[gdigrab @ 000002684b6ec780] Found window Simple Minesweeper, capturing 1169x861x32 at (0,0)
[gdigrab @ 000002684b6ec780] Stream #0: not enough frames to estimate rate; consider increasing probesize
Input #0, gdigrab, from 'title=Simple Minesweeper':
  Duration: N/A, start: 1692005459.397960, bitrate: 966261 kb/s
  Stream #0:0: Video: bmp, bgr0, 1169x861, 966261 kb/s, 30 fps, 1000k tbr, 1000k tbn
Stream mapping:
  Stream #0:0 -> #0:0 (bmp (native) -> h264 (libx264))
Press [q] to stop, [?] for help
[libx264 @ 000002684b6f2740] using cpu capabilities: MMX2 SSE2Fast SSSE3 SSE4.2 AVX FMA3 BMI2 AVX2
[libx264 @ 000002684b6f2740] profile Constrained Baseline, level 3.1, 4:2:0, 8-bit
Output #0, rtp, to 'rtp://127.0.0.1:5004?pkt_size=1200':
  Metadata:
    encoder         : Lavf60.3.100
  Stream #0:0: Video: h264, yuv420p(tv, progressive), 978x720, q=2-31, 30 fps, 90k tbn
    Metadata:
      encoder         : Lavc60.3.100 libx264
    Side data:
      cpb: bitrate max/min/avg: 0/0/0 buffer size: 0 vbv_delay: N/A
SDP:
v=0
o=- 0 0 IN IP4 127.0.0.1
s=No Name
c=IN IP4 127.0.0.1
t=0 0
a=tool:libavformat 60.3.100
m=video 5004 RTP/AVP 96
a=rtpmap:96 H264/90000
a=fmtp:96 packetization-mode=1

frame=    0 fps=0.0 q=22.0 size=       0kB time=00:00:00.00 bitrate=N/A speed=N/A    frame=  303 fps= 30 q=15.0 size=      42kB time=00:00:10.10 bitrate=  34.4kbits/s dup=1 drop=0 speed=1.01x    frame=  603 fps= 30 q=15.0 size=      95kB time=00:00:20.10 bitrate=  38.8kbits/s dup=1 drop=0 speed=   1x    frame=  902 fps= 30 q=15.0 size=     146kB time=00:00:30.03 bitrate=  39.8kbits/s dup=1 drop=0 speed=   1x    frame= 1201 fps= 30 q=15.0 size=     204kB time=00:00:40.03 bitrate=  41.7kbits/s dup=3 drop=0 speed=0.997x    [gdigrab @ 000002684b6ec780] Failed to capture image (error 8)
Error demuxing input file 0: I/O error
title=Simple Minesweeper: I/O error
frame= 1245 fps= 30 q=16.0 Lsize=     212kB time=00:00:41.46 bitrate=  41.9kbits/s dup=3 drop=0 speed=0.995x    
video:207kB audio:0kB subtitle:0kB other streams:0kB global headers:0kB muxing overhead: 2.518546%
[libx264 @ 000002684b6f2740] frame I:5     Avg QP:14.00  size:  2794
[libx264 @ 000002684b6f2740] frame P:1240  Avg QP:15.22  size:   160
[libx264 @ 000002684b6f2740] mb I  I16..4: 100.0%  0.0%  0.0%
[libx264 @ 000002684b6f2740] mb P  I16..4:  0.1%  0.0%  0.0%  P16..4:  0.1%  0.0%  0.0%  0.0%  0.0%    skip:99.8%
[libx264 @ 000002684b6f2740] coded y,uvDC,uvAC intra: 1.2% 0.5% 0.3% inter: 0.0% 0.0% 0.0%
[libx264 @ 000002684b6f2740] i16 v,h,dc,p: 84%  0% 16%  0%
[libx264 @ 000002684b6f2740] i8c dc,h,v,p: 100%  0%  0%  0%
[libx264 @ 000002684b6f2740] kb/s:40.85
